G04 Layer_Physical_Order=1*
G04 Layer_Color=255*
%FSLAX44Y44*%
%MOMM*%
G71*
G01*
G75*
%ADD10O,0.6000X1.4500*%
%ADD11R,1.6800X1.5200*%
%ADD12R,1.2000X0.7000*%
%ADD13C,0.2540*%
%ADD14R,1.6000X1.6000*%
%ADD15C,1.6000*%
%ADD16R,1.5000X1.5000*%
%ADD17C,1.5000*%
%ADD18C,1.2700*%
G36*
X762710Y440226D02*
X761880Y439300D01*
X761440Y439300D01*
X741800D01*
Y419220D01*
X741800Y419220D01*
X741800D01*
X741478Y418041D01*
X725542Y402106D01*
X724111Y402699D01*
X721360Y403061D01*
X718608Y402699D01*
X716044Y401637D01*
X713843Y399947D01*
X712153Y397746D01*
X711561Y396315D01*
X695470D01*
Y409583D01*
X696633Y410065D01*
X698490Y411490D01*
X699915Y413347D01*
X700811Y415509D01*
X701117Y417830D01*
X700811Y420151D01*
X699915Y422313D01*
X698490Y424170D01*
X696633Y425595D01*
X695470Y426077D01*
Y433560D01*
X684530D01*
X673590D01*
Y424690D01*
X684607D01*
X685234Y423420D01*
X684385Y422313D01*
X684137Y421715D01*
X645160D01*
X643673Y421419D01*
X642413Y420577D01*
X633523Y411687D01*
X632681Y410427D01*
X632385Y408940D01*
Y398897D01*
X632276Y398824D01*
X631051Y396992D01*
X630621Y394830D01*
Y386330D01*
X631051Y384168D01*
X632276Y382336D01*
X634108Y381111D01*
X636270Y380681D01*
X638432Y381111D01*
X640264Y382336D01*
X641489Y384168D01*
X641918Y386330D01*
Y394830D01*
X641489Y396992D01*
X640264Y398824D01*
X640155Y398897D01*
Y407331D01*
X646769Y413945D01*
X684137D01*
X684385Y413347D01*
X685234Y412240D01*
X684607Y410970D01*
X673590D01*
Y390690D01*
X689176D01*
X690183Y389683D01*
X691443Y388841D01*
X692930Y388545D01*
X711561D01*
X712153Y387114D01*
X713843Y384913D01*
X716044Y383223D01*
X718608Y382161D01*
X721360Y381799D01*
X724111Y382161D01*
X726675Y383223D01*
X728877Y384913D01*
X730567Y387114D01*
X731629Y389678D01*
X731991Y392430D01*
X731629Y395182D01*
X731036Y396612D01*
X740758Y406334D01*
X741961Y405741D01*
X741881Y405130D01*
X751840D01*
Y403860D01*
X753110D01*
Y393901D01*
X754461Y394078D01*
X756903Y395090D01*
X759001Y396699D01*
X760610Y398797D01*
X761440Y400802D01*
X762710Y400549D01*
Y379020D01*
X544120D01*
Y397630D01*
X551180D01*
Y407670D01*
Y417710D01*
X544120D01*
Y425512D01*
X544639Y425689D01*
X545390Y425832D01*
X547387Y424300D01*
X549829Y423288D01*
X552450Y422943D01*
X555071Y423288D01*
X557513Y424300D01*
X559611Y425909D01*
X561220Y428007D01*
X562232Y430449D01*
X562577Y433070D01*
X562333Y434919D01*
X573989Y446575D01*
X578200D01*
Y444420D01*
X595280D01*
Y446575D01*
X599981D01*
X604223Y442333D01*
X605221Y441666D01*
Y440830D01*
X605651Y438668D01*
X606876Y436836D01*
X608708Y435611D01*
X610870Y435182D01*
X613032Y435611D01*
X614864Y436836D01*
X616089Y438668D01*
X616519Y440830D01*
Y445366D01*
X616651Y445454D01*
X617921Y444776D01*
Y440830D01*
X618351Y438668D01*
X619576Y436836D01*
X621408Y435611D01*
X623570Y435182D01*
X625732Y435611D01*
X627564Y436836D01*
X628789Y438668D01*
X629218Y440830D01*
Y449330D01*
X629043Y450213D01*
X629920Y451325D01*
X630797Y450213D01*
X630621Y449330D01*
Y440830D01*
X631051Y438668D01*
X632276Y436836D01*
X634108Y435611D01*
X636270Y435182D01*
X638432Y435611D01*
X640264Y436836D01*
X641489Y438668D01*
X641918Y440830D01*
Y449330D01*
X641743Y450213D01*
X642620Y451325D01*
X643497Y450213D01*
X643322Y449330D01*
Y440830D01*
X643751Y438668D01*
X644976Y436836D01*
X646808Y435611D01*
X648970Y435182D01*
X651132Y435611D01*
X652964Y436836D01*
X654189Y438668D01*
X654619Y440830D01*
Y449330D01*
X654289Y450985D01*
X655089Y452255D01*
X691601D01*
X699695Y444161D01*
Y435610D01*
X699991Y434123D01*
X700833Y432863D01*
X711684Y422012D01*
X711091Y420582D01*
X710729Y417830D01*
X711091Y415079D01*
X712153Y412514D01*
X713843Y410313D01*
X716044Y408623D01*
X718608Y407561D01*
X721360Y407199D01*
X724111Y407561D01*
X726675Y408623D01*
X728877Y410313D01*
X730567Y412514D01*
X731629Y415079D01*
X731991Y417830D01*
X731629Y420582D01*
X730567Y423145D01*
X728877Y425347D01*
X726675Y427037D01*
X724111Y428099D01*
X721360Y428461D01*
X718608Y428099D01*
X717178Y427506D01*
X713167Y431517D01*
X713653Y432690D01*
X731900D01*
Y453770D01*
X710820D01*
Y435523D01*
X709647Y435037D01*
X707465Y437219D01*
Y445770D01*
X707169Y447257D01*
X706327Y448517D01*
X700647Y454197D01*
X701133Y455370D01*
X762710D01*
Y440226D01*
D02*
G37*
G36*
X571152Y454100D02*
X570893Y454049D01*
X569633Y453207D01*
X557939Y441513D01*
X557513Y441840D01*
X555071Y442852D01*
X552450Y443197D01*
X549829Y442852D01*
X547387Y441840D01*
X545390Y440308D01*
X544639Y440452D01*
X544120Y440628D01*
Y455370D01*
X571027D01*
X571152Y454100D01*
D02*
G37*
%LPC*%
G36*
X595280Y386470D02*
X588010D01*
Y381700D01*
X595280D01*
Y386470D01*
D02*
G37*
G36*
X585470Y393780D02*
X578200D01*
Y389010D01*
X585470D01*
Y393780D01*
D02*
G37*
G36*
X595280D02*
X588010D01*
Y389010D01*
X595280D01*
Y393780D01*
D02*
G37*
G36*
X585470Y386470D02*
X578200D01*
Y381700D01*
X585470D01*
Y386470D01*
D02*
G37*
G36*
X647700Y389310D02*
X643322D01*
Y386330D01*
X643751Y384168D01*
X644976Y382336D01*
X646808Y381111D01*
X647700Y380934D01*
Y389310D01*
D02*
G37*
G36*
X654619D02*
X650240D01*
Y380934D01*
X651132Y381111D01*
X652964Y382336D01*
X654189Y384168D01*
X654619Y386330D01*
Y389310D01*
D02*
G37*
G36*
X595280Y439500D02*
X578200D01*
Y427420D01*
X582855D01*
Y421640D01*
Y410780D01*
X578200D01*
Y398700D01*
X595280D01*
Y410780D01*
X590625D01*
Y417755D01*
X604124D01*
X604408Y416920D01*
X604480Y416485D01*
X603105Y414693D01*
X602209Y412531D01*
X601903Y410210D01*
X602209Y407889D01*
X603105Y405727D01*
X604530Y403870D01*
X606387Y402445D01*
X606985Y402197D01*
Y398897D01*
X606876Y398824D01*
X605651Y396992D01*
X605221Y394830D01*
Y386330D01*
X605651Y384168D01*
X606876Y382336D01*
X608708Y381111D01*
X610870Y380681D01*
X613032Y381111D01*
X614864Y382336D01*
X616089Y384168D01*
X616519Y386330D01*
Y394830D01*
X616089Y396992D01*
X614864Y398824D01*
X614755Y398897D01*
Y402197D01*
X615353Y402445D01*
X617210Y403870D01*
X618415Y405440D01*
X619685Y405112D01*
Y398897D01*
X619576Y398824D01*
X618351Y396992D01*
X617921Y394830D01*
Y386330D01*
X618351Y384168D01*
X619576Y382336D01*
X621408Y381111D01*
X623570Y380681D01*
X625732Y381111D01*
X627564Y382336D01*
X628789Y384168D01*
X629218Y386330D01*
Y394830D01*
X628789Y396992D01*
X627564Y398824D01*
X627455Y398897D01*
Y412750D01*
X627159Y414237D01*
X626317Y415497D01*
X617427Y424387D01*
X616167Y425229D01*
X614680Y425525D01*
X590625D01*
Y427420D01*
X595280D01*
Y439500D01*
D02*
G37*
G36*
X562490Y417710D02*
X553720D01*
Y408940D01*
X562490D01*
Y417710D01*
D02*
G37*
G36*
X683260Y444970D02*
X673590D01*
Y436100D01*
X683260D01*
Y444970D01*
D02*
G37*
G36*
X695470D02*
X685800D01*
Y436100D01*
X695470D01*
Y444970D01*
D02*
G37*
G36*
X562490Y406400D02*
X553720D01*
Y397630D01*
X562490D01*
Y406400D01*
D02*
G37*
G36*
X647700Y400226D02*
X646808Y400049D01*
X644976Y398824D01*
X643751Y396992D01*
X643322Y394830D01*
Y391850D01*
X647700D01*
Y400226D01*
D02*
G37*
G36*
X650240D02*
Y391850D01*
X654619D01*
Y394830D01*
X654189Y396992D01*
X652964Y398824D01*
X651132Y400049D01*
X650240Y400226D01*
D02*
G37*
G36*
X750570Y402590D02*
X741881D01*
X742058Y401239D01*
X743070Y398797D01*
X744679Y396699D01*
X746777Y395090D01*
X749219Y394078D01*
X750570Y393901D01*
Y402590D01*
D02*
G37*
%LPD*%
D10*
X610870Y390580D02*
D03*
X623570D02*
D03*
X636270D02*
D03*
X648970D02*
D03*
X610870Y445080D02*
D03*
X623570D02*
D03*
X636270D02*
D03*
X648970D02*
D03*
D11*
X684530Y400830D02*
D03*
Y434830D02*
D03*
D12*
X586740Y450460D02*
D03*
Y433460D02*
D03*
Y404740D02*
D03*
Y387740D02*
D03*
D13*
X623570Y390580D02*
Y412750D01*
X586740Y421640D02*
Y433460D01*
Y404740D02*
Y421640D01*
X614680D02*
X623570Y412750D01*
X586740Y421640D02*
X614680D01*
X610870Y390580D02*
Y410210D01*
X645160Y417830D02*
X692150D01*
X692930Y392430D02*
X721360D01*
X684530Y400830D02*
X692930Y392430D01*
X751840Y422910D02*
Y429260D01*
X721360Y392430D02*
X751840Y422910D01*
X636270Y408940D02*
X645160Y417830D01*
X636270Y390580D02*
Y408940D01*
X610870Y445080D02*
Y446261D01*
X620749Y456140D01*
X693210D01*
X703580Y445770D01*
Y435610D02*
Y445770D01*
Y435610D02*
X721360Y417830D01*
X610870Y384810D02*
Y390580D01*
X606970Y445080D02*
X610870D01*
X601590Y450460D02*
X606970Y445080D01*
X586740Y450460D02*
X601590D01*
X572380D02*
X586740D01*
X554990Y433070D02*
X572380Y450460D01*
X552450Y433070D02*
X554990D01*
D14*
X721360Y443230D02*
D03*
D15*
Y417830D02*
D03*
Y392430D02*
D03*
D16*
X552450Y407670D02*
D03*
X751840Y429260D02*
D03*
D17*
X552450Y433070D02*
D03*
X751840Y403860D02*
D03*
D18*
X610870Y410210D02*
D03*
X692150Y417830D02*
D03*
M02*
