G04 Layer_Color=65535*
%FSLAX44Y44*%
%MOMM*%
G71*
G01*
G75*
%ADD19C,0.2500*%
%ADD20C,0.6000*%
%ADD21C,0.2000*%
%ADD22C,0.0500*%
%ADD23C,0.1270*%
D19*
X603620Y390580D02*
G03*
X603620Y390580I-1250J0D01*
G01*
X671880Y388830D02*
G03*
X671880Y388830I-1250J0D01*
G01*
D20*
X617920Y411830D02*
G03*
X617920Y411830I-3000J0D01*
G01*
D21*
X604920Y401830D02*
X654920D01*
X604920Y433830D02*
X654920D01*
X604920Y401830D02*
Y433830D01*
X654920Y401830D02*
Y433830D01*
X539750Y445770D02*
X565150D01*
Y394970D02*
Y445770D01*
X539750Y394970D02*
X565150D01*
X539750D02*
Y445770D01*
X739140Y391160D02*
X764540D01*
X739140D02*
Y441960D01*
X764540D01*
Y391160D02*
Y441960D01*
X670530Y395330D02*
Y440330D01*
X698530Y395330D02*
Y440330D01*
X670530Y395330D02*
X672130D01*
X670530Y440330D02*
X672130D01*
X696930Y395330D02*
X698530D01*
X696930Y440330D02*
X698530D01*
D22*
X579120Y427990D02*
X594360D01*
X579120Y455930D02*
X594360D01*
X579120Y427990D02*
Y455930D01*
X594360Y427990D02*
Y455930D01*
X579120Y382270D02*
X594360D01*
X579120Y410210D02*
X594360D01*
X579120Y382270D02*
Y410210D01*
X594360Y382270D02*
Y410210D01*
D23*
X593092Y412750D02*
Y415289D01*
Y414020D01*
X600710D01*
Y412750D01*
Y415289D01*
X594362Y424176D02*
X593092Y422907D01*
Y420368D01*
X594362Y419098D01*
X599440D01*
X600710Y420368D01*
Y422907D01*
X599440Y424176D01*
X600710Y426716D02*
Y429255D01*
Y427985D01*
X593092D01*
X594362Y426716D01*
X541020Y383540D02*
X543559D01*
X542290D01*
Y388618D01*
X541020D01*
X547368Y383540D02*
Y388618D01*
X551177D01*
X552446Y387349D01*
Y383540D01*
X554986Y381001D02*
Y388618D01*
X558794D01*
X560064Y387349D01*
Y384810D01*
X558794Y383540D01*
X554986D01*
X562603Y388618D02*
Y384810D01*
X563873Y383540D01*
X567681D01*
Y388618D01*
X571490Y389888D02*
Y388618D01*
X570221D01*
X572760D01*
X571490D01*
Y384810D01*
X572760Y383540D01*
X725170Y448310D02*
X727709D01*
X728978Y449580D01*
Y452119D01*
X727709Y453388D01*
X725170D01*
X723900Y452119D01*
Y449580D01*
X725170Y448310D01*
X731517Y453388D02*
Y449580D01*
X732787Y448310D01*
X736596D01*
Y453388D01*
X740405Y454658D02*
Y453388D01*
X739135D01*
X741674D01*
X740405D01*
Y449580D01*
X741674Y448310D01*
X745483Y445771D02*
Y453388D01*
X749292D01*
X750561Y452119D01*
Y449580D01*
X749292Y448310D01*
X745483D01*
X753101Y453388D02*
Y449580D01*
X754370Y448310D01*
X758179D01*
Y453388D01*
X761988Y454658D02*
Y453388D01*
X760718D01*
X763257D01*
X761988D01*
Y449580D01*
X763257Y448310D01*
X717550Y384813D02*
Y392430D01*
X713741D01*
X712472Y391160D01*
Y386082D01*
X713741Y384813D01*
X717550D01*
X709932Y392430D02*
X707393D01*
X708663D01*
Y384813D01*
X709932Y386082D01*
X576580Y433070D02*
X568963D01*
Y436879D01*
X570232Y438148D01*
X572771D01*
X574041Y436879D01*
Y433070D01*
Y435609D02*
X576580Y438148D01*
Y440687D02*
X571502D01*
X568963Y443227D01*
X571502Y445766D01*
X576580D01*
X572771D01*
Y440687D01*
X576580Y394970D02*
X568963D01*
Y398779D01*
X570232Y400048D01*
X572771D01*
X574041Y398779D01*
Y394970D01*
Y397509D02*
X576580Y400048D01*
X568963Y402588D02*
X576580D01*
Y406396D01*
X575310Y407666D01*
X574041D01*
X572771Y406396D01*
Y402588D01*
Y406396D01*
X571502Y407666D01*
X570232D01*
X568963Y406396D01*
Y402588D01*
M02*
