G04 Layer_Physical_Order=2*
G04 Layer_Color=16711680*
%FSLAX44Y44*%
%MOMM*%
G71*
G01*
G75*
%ADD13C,0.2540*%
%ADD14R,1.6000X1.6000*%
%ADD15C,1.6000*%
%ADD16R,1.5000X1.5000*%
%ADD17C,1.5000*%
%ADD18C,1.2700*%
G36*
X762710Y440226D02*
X761880Y439300D01*
X761440Y439300D01*
X741800D01*
Y419220D01*
X761440D01*
X761880Y419220D01*
X762710Y418294D01*
Y407171D01*
X761440Y406918D01*
X760610Y408923D01*
X759001Y411021D01*
X756903Y412630D01*
X754461Y413642D01*
X753110Y413819D01*
Y403860D01*
Y393901D01*
X754461Y394078D01*
X756903Y395090D01*
X759001Y396699D01*
X760610Y398797D01*
X761440Y400802D01*
X762710Y400549D01*
Y379020D01*
X544120D01*
Y397630D01*
X551180D01*
Y407670D01*
Y417710D01*
X544120D01*
Y425512D01*
X544639Y425689D01*
X545390Y425832D01*
X547387Y424300D01*
X549829Y423288D01*
X552450Y422943D01*
X555071Y423288D01*
X557513Y424300D01*
X559611Y425909D01*
X561220Y428007D01*
X562232Y430449D01*
X562577Y433070D01*
X562232Y435691D01*
X561220Y438133D01*
X559611Y440231D01*
X557513Y441840D01*
X555071Y442852D01*
X552450Y443197D01*
X549829Y442852D01*
X547387Y441840D01*
X545390Y440308D01*
X544639Y440452D01*
X544120Y440628D01*
Y455370D01*
X762710D01*
Y440226D01*
D02*
G37*
%LPC*%
G36*
X562490Y406400D02*
X553720D01*
Y397630D01*
X562490D01*
Y406400D01*
D02*
G37*
G36*
X750570Y402590D02*
X741881D01*
X742058Y401239D01*
X743070Y398797D01*
X744679Y396699D01*
X746777Y395090D01*
X749219Y394078D01*
X750570Y393901D01*
Y402590D01*
D02*
G37*
G36*
X692150Y426797D02*
X689829Y426491D01*
X687667Y425595D01*
X685810Y424170D01*
X684385Y422313D01*
X683489Y420151D01*
X683183Y417830D01*
X683489Y415509D01*
X684385Y413347D01*
X685810Y411490D01*
X687667Y410065D01*
X689829Y409169D01*
X692150Y408863D01*
X694471Y409169D01*
X696633Y410065D01*
X697538Y410759D01*
X711684Y396612D01*
X711091Y395182D01*
X710729Y392430D01*
X711091Y389678D01*
X712153Y387114D01*
X713843Y384913D01*
X716044Y383223D01*
X718608Y382161D01*
X721360Y381799D01*
X724111Y382161D01*
X726675Y383223D01*
X728877Y384913D01*
X730567Y387114D01*
X731629Y389678D01*
X731991Y392430D01*
X731629Y395182D01*
X730567Y397746D01*
X728877Y399947D01*
X726675Y401637D01*
X724111Y402699D01*
X721360Y403061D01*
X718608Y402699D01*
X717178Y402106D01*
X701066Y418218D01*
X700811Y420151D01*
X699915Y422313D01*
X698490Y424170D01*
X696633Y425595D01*
X694471Y426491D01*
X692150Y426797D01*
D02*
G37*
G36*
X750570Y413819D02*
X749219Y413642D01*
X746777Y412630D01*
X744679Y411021D01*
X743070Y408923D01*
X742058Y406481D01*
X741881Y405130D01*
X750570D01*
Y413819D01*
D02*
G37*
G36*
X731900Y453770D02*
X710820D01*
Y447115D01*
X684530D01*
X683043Y446819D01*
X681783Y445977D01*
X661331Y425525D01*
X617220D01*
X615733Y425229D01*
X614473Y424387D01*
X609019Y418933D01*
X608549Y418871D01*
X606387Y417975D01*
X604530Y416550D01*
X603105Y414693D01*
X602209Y412531D01*
X601903Y410210D01*
X602209Y407889D01*
X603105Y405727D01*
X604530Y403870D01*
X606387Y402445D01*
X608549Y401549D01*
X610870Y401243D01*
X613191Y401549D01*
X615353Y402445D01*
X617210Y403870D01*
X618635Y405727D01*
X619531Y407889D01*
X619837Y410210D01*
X619531Y412531D01*
X618635Y414693D01*
X617390Y416316D01*
X618829Y417755D01*
X662940D01*
X664427Y418051D01*
X665687Y418893D01*
X686139Y439345D01*
X710820D01*
Y432690D01*
X731900D01*
Y453770D01*
D02*
G37*
G36*
X562490Y417710D02*
X553720D01*
Y408940D01*
X562490D01*
Y417710D01*
D02*
G37*
G36*
X721360Y428461D02*
X718608Y428099D01*
X716044Y427037D01*
X713843Y425347D01*
X712153Y423145D01*
X711091Y420582D01*
X710729Y417830D01*
X711091Y415079D01*
X712153Y412514D01*
X713843Y410313D01*
X716044Y408623D01*
X718608Y407561D01*
X721360Y407199D01*
X724111Y407561D01*
X726675Y408623D01*
X728877Y410313D01*
X730567Y412514D01*
X731629Y415079D01*
X731991Y417830D01*
X731629Y420582D01*
X730567Y423145D01*
X728877Y425347D01*
X726675Y427037D01*
X724111Y428099D01*
X721360Y428461D01*
D02*
G37*
%LPD*%
D13*
X610870Y410210D02*
Y415290D01*
X617220Y421640D01*
X662940D01*
X684530Y443230D01*
X721360D01*
X692150Y417830D02*
X695960D01*
X721360Y392430D01*
D14*
Y443230D02*
D03*
D15*
Y417830D02*
D03*
Y392430D02*
D03*
D16*
X552450Y407670D02*
D03*
X751840Y429260D02*
D03*
D17*
X552450Y433070D02*
D03*
X751840Y403860D02*
D03*
D18*
X610870Y410210D02*
D03*
X692150Y417830D02*
D03*
M02*
